Coordinates
version=1
nRows=6
nColumns=63
inDegrees=yes

Units are S.I. units (second, meters, Newtons, ...)
If the header above contains a line with 'inDegrees', this indicates whether rotational values are in degrees (yes) or radians (no).

endheader
time	pelvis_tilt	pelvis_list	pelvis_rotation	pelvis_tx	pelvis_ty	pelvis_tz	hip_flexion_r	hip_adduction_r	hip_rotation_r	knee_angle_r	knee_angle_r_beta	ankle_angle_r	subtalar_angle_r	mtp_angle_r	hip_flexion_l	hip_adduction_l	hip_rotation_l	knee_angle_l	knee_angle_l_beta	ankle_angle_l	subtalar_angle_l	mtp_angle_l	L5_S1_Flex_Ext	L5_S1_Lat_Bending	L5_S1_axial_rotation	L4_L5_Flex_Ext	L4_L5_Lat_Bending	L4_L5_axial_rotation	L3_L4_Flex_Ext	L3_L4_Lat_Bending	L3_L4_axial_rotation	L2_L3_Flex_Ext	L2_L3_Lat_Bending	L2_L3_axial_rotation	L1_L2_Flex_Ext	L1_L2_Lat_Bending	L1_L2_axial_rotation	L1_T12_Flex_Ext	L1_T12_Lat_Bending	L1_T12_axial_rotation	Abs_r3	Abs_r2	Abs_r1	Abs_t1	Abs_t2	neck_flexion	neck_bending	neck_rotation	arm_flex_r	arm_add_r	arm_rot_r	elbow_flex_r	pro_sup_r	wrist_flex_r	wrist_dev_r	arm_flex_l	arm_add_l	arm_rot_l	elbow_flex_l	pro_sup_l	wrist_flex_l	wrist_dev_l
0.657143	-2.592737	-0.124292	89.841417	0.235523	0.799836	0.669034	2.500353	-2.321579	0.610338	8.480612	0.148015	23.244389	1.567572	0.000000	-0.042813	1.106845	-3.947602	1.031314	0.018000	20.650571	0.933857	0.000000	0.064846	-0.372934	0.406612	0.120425	-0.496002	0.432025	0.106535	-0.906751	0.432025	0.074112	-0.906751	0.355785	0.060216	-0.760486	0.330372	0.037053	-0.577674	0.304959	0.463187	-4.218699	2.261452	0.000000	0.000000	23.648616	2.769323	0.798871	9.794890	-6.728861	5.012031	113.399861	83.258448	-9.994477	15.338640	4.708136	-14.800464	9.040365	114.291805	80.147149	-12.236524	8.827355
0.685714	-2.713718	0.070794	89.418705	0.236172	0.800565	0.667596	2.226128	-2.428963	0.900786	8.416945	0.146903	23.221659	1.642957	0.000000	-0.390088	1.194666	-4.767921	0.929582	0.016224	20.812919	1.693158	0.000000	0.057755	-0.390842	0.455063	0.107257	-0.519820	0.483504	0.094886	-0.950294	0.483504	0.066008	-0.950294	0.398180	0.053631	-0.797006	0.369738	0.033001	-0.605415	0.341297	0.412539	-4.421287	2.530922	0.000000	0.000000	23.427493	2.916176	0.767798	9.834821	-6.954925	3.044973	120.444086	82.834321	-10.398575	15.043280	3.995370	-14.321643	5.534243	121.107362	80.270400	-13.849726	8.161831
0.714286	-2.795009	0.235677	88.980224	0.236718	0.800983	0.666311	2.026869	-2.503312	1.198775	8.416709	0.146899	23.239808	1.692226	0.000000	-0.689030	1.254900	-5.514584	0.842465	0.014704	21.038332	2.327640	0.000000	0.052289	-0.402414	0.501982	0.097106	-0.535211	0.533356	0.085906	-0.978430	0.533356	0.059761	-0.978430	0.439235	0.048556	-0.820603	0.407861	0.029878	-0.623340	0.376487	0.373495	-4.552192	2.791876	0.000000	0.000000	23.308354	3.093547	0.790485	9.700861	-7.077781	1.466631	126.373958	82.375478	-10.510963	14.464447	3.328377	-13.642425	2.409578	126.895226	80.599745	-15.429653	6.722392
0.742857	-2.850453	0.374296	88.549806	0.237194	0.801161	0.665232	1.894557	-2.551812	1.530192	8.475366	0.147923	23.276346	1.665231	0.000000	-0.940831	1.298767	-6.211962	0.770938	0.013455	21.295073	2.893738	0.000000	0.047688	-0.410930	0.545672	0.088562	-0.546537	0.579776	0.078347	-0.999135	0.579776	0.054503	-0.999135	0.477463	0.044283	-0.837969	0.443358	0.027249	-0.636531	0.409254	0.340631	-4.648523	3.034862	0.000000	0.000000	23.268570	3.293127	0.790532	9.405658	-7.100041	0.073998	131.082544	81.834448	-10.347104	13.705742	2.757983	-12.821672	-0.382144	131.509496	80.892006	-16.731667	4.639678
0.771429	-2.891276	0.497002	88.129986	0.237629	0.801173	0.664373	1.824485	-2.582614	1.895717	8.607584	0.150231	23.321632	1.556618	0.000000	-1.158475	1.336091	-6.861530	0.716935	0.012513	21.543430	3.380760	0.000000	0.042585	-0.418118	0.586860	0.079085	-0.556096	0.623539	0.069963	-1.016611	0.623539	0.048671	-1.016611	0.513502	0.039545	-0.852625	0.476824	0.024333	-0.647664	0.440145	0.304182	-4.729830	3.263939	0.000000	0.000000	23.270284	3.513592	0.758471	9.000480	-7.032011	-1.295169	134.554086	81.249418	-10.011770	12.912967	2.325259	-11.925950	-2.856006	134.886889	81.098536	-17.676253	2.134817
0.800000	-2.901648	0.589587	87.803876	0.237924	0.801070	0.663738	1.798142	-2.580820	2.250273	8.768657	0.153042	23.354931	1.350451	0.000000	-1.327340	1.346448	-7.328751	0.679728	0.011863	21.748914	3.727178	0.000000	0.039158	-0.421909	0.608881	0.072720	-0.561140	0.646936	0.064333	-1.025831	0.646936	0.044754	-1.025831	0.532771	0.036362	-0.860358	0.494716	0.022375	-0.653538	0.456661	0.279702	-4.772724	3.386412	0.000000	0.000000	23.289192	3.744564	0.733265	8.562274	-6.879244	-2.699237	136.768096	80.648390	-9.394441	11.945569	2.056584	-10.996973	-5.027800	137.027887	81.398403	-18.289890	-0.670382
